<?xml version="1.0" encoding="utf-8"?>
<!-- Generator: Adobe Illustrator 26.0.0, SVG Export Plug-In . SVG Version: 6.00 Build 0)  -->
<svg version="1.1" id="Layer_1" xmlns="http://www.w3.org/2000/svg" xmlns:xlink="http://www.w3.org/1999/xlink" x="0px" y="0px"
	 viewBox="0 0 180 19" style="enable-background:new 0 0 180 19;" xml:space="preserve">
<style type="text/css">
	.st0{fill:#BEFFFF;}
	.st1{fill:#FFFFFF;}
</style>
<g>
	<g>
		<path class="st0" d="M20.6,0.2v18.6h-4.5V7.7l-4.1,11.2H8.5L4.4,7.7v11.2H0V0.2h5.2l5.1,12.9l5.1-12.9L20.6,0.2z"/>
		<path class="st0" d="M39.5,0.2l-6.3,12.5v6.2h-4.4v-6.2L22.4,0.2h5L31,8l3.5-7.8H39.5z"/>
		<path class="st0" d="M41.7,4.6C42.4,3.2,43.6,2,45,1.2C46.4,0.4,48,0,49.7,0c2.2,0,4,0.6,5.6,1.8c1.5,1.2,2.6,2.9,3.1,4.8h-4.9
			c-0.3-0.7-0.9-1.4-1.5-1.8c-0.7-0.4-1.5-0.6-2.3-0.6c-0.6,0-1.2,0.1-1.8,0.4c-0.6,0.3-1.1,0.6-1.5,1.1c-0.8,1-1.3,2.3-1.3,3.9
			c0,1.6,0.4,2.9,1.3,3.9c0.4,0.5,0.9,0.9,1.5,1.1c0.6,0.3,1.2,0.4,1.8,0.3c0.8,0,1.6-0.2,2.3-0.6c0.7-0.4,1.2-1,1.5-1.8h4.9
			c-0.5,1.9-1.5,3.6-3.1,4.8c-1.5,1.2-3.4,1.7-5.6,1.7c-1.7,0-3.3-0.4-4.7-1.2c-1.4-0.8-2.5-1.9-3.3-3.4c-0.8-1.5-1.2-3.2-1.2-4.9
			C40.5,7.8,40.9,6.1,41.7,4.6L41.7,4.6z"/>
		<path class="st0" d="M72.4,15.6h-6.8l-1.1,3.3h-4.6l6.6-18.6h5.1l6.6,18.6h-4.7L72.4,15.6z M71.3,12.1L69,5.3l-2.2,6.8H71.3z"/>
		<path class="st0" d="M89.5,18.9l-3.8-7h-1.1v7h-4.4V0.2h7.5c1.3,0,2.5,0.2,3.7,0.8c0.9,0.5,1.7,1.2,2.3,2.1c0.5,0.9,0.8,1.9,0.8,3
			c0,1.2-0.3,2.4-1,3.3c-0.8,1-1.8,1.7-3,2.1l4.2,7.4H89.5z M84.6,8.6h2.8c0.8,0,1.4-0.2,1.8-0.6c0.2-0.2,0.4-0.5,0.5-0.8
			c0.1-0.3,0.1-0.6,0.1-0.9c0-0.3,0-0.6-0.1-0.9c-0.1-0.3-0.3-0.5-0.5-0.8c-0.4-0.4-1-0.6-1.8-0.6h-2.8V8.6z"/>
		<path class="st0" d="M109,1.4c1.4,0.7,2.6,1.9,3.3,3.3c0.8,1.5,1.2,3.2,1.2,4.9c0,1.7-0.4,3.4-1.2,4.9c-0.8,1.4-1.9,2.6-3.4,3.3
			c-1.6,0.8-3.3,1.2-5,1.2h-6.8V0.2h6.8C105.7,0.2,107.5,0.6,109,1.4z M107.6,13.5c0.9-0.9,1.4-2.3,1.4-4s-0.5-3-1.4-4
			c-0.9-1-2.2-1.4-3.9-1.4h-2.1v10.8h2.1C105.4,14.9,106.7,14.5,107.6,13.5z"/>
		<path class="st1" d="M130.9,0.3L124,18.9h-2.1L115,0.3h2l5.9,16.5l6-16.5H130.9z"/>
		<path class="st1" d="M134,4.7c0.7-1.4,1.8-2.6,3.2-3.4c1.4-0.8,2.9-1.2,4.5-1.2c1.8-0.1,3.7,0.5,5.2,1.5c1.5,1,2.6,2.5,3.2,4.2
			h-2.1c-0.5-1.2-1.3-2.2-2.4-2.9c-1.1-0.7-2.4-1-3.7-1.1c-1.3,0-2.6,0.3-3.7,1c-1.1,0.6-1.9,1.6-2.5,2.7c-0.6,1.3-0.9,2.7-0.9,4.2
			c0,1.4,0.3,2.9,0.9,4.1c0.6,1.1,1.4,2.1,2.5,2.7c1.1,0.6,2.4,1,3.7,1c1.3,0,2.6-0.4,3.7-1c1.1-0.7,1.9-1.7,2.4-2.9h2.1
			c-0.6,1.7-1.7,3.1-3.2,4.1c-1.6,1-3.4,1.5-5.2,1.5c-1.6,0-3.1-0.4-4.5-1.2c-1.3-0.8-2.5-2-3.2-3.4c-0.8-1.5-1.2-3.2-1.2-4.9
			S133.2,6.2,134,4.7L134,4.7z"/>
		<path class="st1" d="M154,4.7c0.7-1.4,1.8-2.6,3.2-3.4c1.4-0.8,2.9-1.2,4.5-1.2c1.8-0.1,3.7,0.5,5.2,1.5c1.5,1,2.6,2.5,3.2,4.2
			h-2.1c-0.5-1.2-1.3-2.2-2.4-2.9c-1.1-0.7-2.4-1-3.7-1.1c-1.3,0-2.6,0.3-3.7,1c-1.1,0.6-1.9,1.6-2.5,2.7c-0.6,1.3-0.9,2.7-0.9,4.2
			c0,1.4,0.3,2.9,0.9,4.1c0.6,1.1,1.4,2.1,2.5,2.7c1.1,0.6,2.4,1,3.7,1c1.3,0,2.6-0.4,3.7-1c1.1-0.7,1.9-1.7,2.4-2.9h2.1
			c-0.6,1.7-1.7,3.1-3.2,4.1c-1.6,1-3.4,1.5-5.2,1.5c-1.6,0-3.1-0.4-4.5-1.2c-1.3-0.8-2.4-2-3.2-3.4c-0.8-1.5-1.2-3.2-1.2-4.9
			C152.8,7.8,153.2,6.2,154,4.7L154,4.7z"/>
		<path class="st0" d="M177.2,18.4c1.5,0,2.8-1.3,2.8-2.8c0-1.6-1.2-2.8-2.8-2.8c-1.5,0-2.8,1.3-2.8,2.8
			C174.5,17.1,175.7,18.4,177.2,18.4z"/>
	</g>
</g>
</svg>
